<svg width="39" height="47" viewBox="0 0 39 47" fill="none" xmlns="http://www.w3.org/2000/svg">
<path d="M18.8288 12.3764C22.1085 12.3764 24.767 9.71781 24.767 6.43822C24.767 3.15863 22.1085 0.5 18.8288 0.5C15.5493 0.5 12.8906 3.15863 12.8906 6.43822C12.8906 9.71781 15.5493 12.3764 18.8288 12.3764Z" fill="#00563F"/>
<path d="M36.8098 19.7347C35.2052 16.588 32.9815 16.1841 31.2234 16.1841C30.7722 16.1841 29.9308 16.1841 29.5085 16.8224C29.1119 17.4198 29.3406 18.1693 29.6222 18.8341C29.7453 19.1155 29.8798 19.4012 30.0174 19.6978C30.8588 21.4983 31.9064 23.7405 31.9064 28.0669C31.9064 34.2229 28.8693 37.1707 25.1203 38.4652C24.6719 38.6201 24.3672 39.0365 24.3672 39.511V45.1482C24.3672 45.8728 25.0543 46.4026 25.7549 46.2178C33.9705 44.0516 38.5502 37.7407 38.5502 28.1676C38.5502 24.8682 37.9312 21.8702 36.8098 19.7347Z" fill="#00563F"/>
<path d="M1.90454 19.7347C3.50904 16.588 5.73275 16.1841 7.49087 16.1841C7.94202 16.1841 8.7834 16.1841 9.20578 16.8224C9.60244 17.4198 9.37364 18.1693 9.09208 18.8341C8.96891 19.1155 8.83452 19.4012 8.69691 19.6978C7.85553 21.4983 6.80779 23.7405 6.80779 28.0669C6.80779 34.2229 9.84487 37.1707 13.5939 38.4652C14.0424 38.6201 14.3471 39.0365 14.3471 39.511V45.1482C14.3471 45.8728 13.66 46.4026 12.9594 46.2178C4.74386 44.0516 0.164062 37.7407 0.164062 28.1676C0.164062 24.8682 0.783076 21.8702 1.90454 19.7347Z" fill="#00563F"/>
</svg>