<?xml version="1.0" encoding="utf-8"?>
<!-- Generator: Adobe Illustrator 25.4.1, SVG Export Plug-In . SVG Version: 6.00 Build 0)  -->
<svg width="24" height="24"  version="1.1" id="Layer_1" xmlns="http://www.w3.org/2000/svg" xmlns:xlink="http://www.w3.org/1999/xlink" x="0px" y="0px"
	 viewBox="0 0 2000 2000" enable-background="new 0 0 2000 2000" xml:space="preserve">
<g>
	<g>
		<g>
			
				<linearGradient id="SVGID_1_" gradientUnits="userSpaceOnUse" x1="1002.762" y1="461.1222" x2="2093.6121" y2="461.1222" gradientTransform="matrix(0.7917 -0.6109 0.6109 0.7917 -339.4314 1809.2872)">
				<stop  offset="0" style="stop-color:#28A521"/>
				<stop  offset="7.020201e-02" style="stop-color:#43B41B"/>
				<stop  offset="0.147" style="stop-color:#58BF15"/>
				<stop  offset="0.2328" style="stop-color:#67C812"/>
				<stop  offset="0.334" style="stop-color:#6FCD10"/>
				<stop  offset="0.489" style="stop-color:#72CE0F"/>
				<stop  offset="0.6424" style="stop-color:#6FCC10"/>
				<stop  offset="0.75" style="stop-color:#66C712"/>
				<stop  offset="0.8436" style="stop-color:#56BF16"/>
				<stop  offset="0.9288" style="stop-color:#41B31B"/>
				<stop  offset="1" style="stop-color:#28A521"/>
			</linearGradient>
			<path fill="url(#SVGID_1_)" d="M1122.8,1926.7c-83.5-102.5-147.4-221.7-185.5-349.5c-38.1-127.8-51-263.7-37.2-397.7
				c13.8-134,53.9-266.1,118.7-385.8s154-227,260.4-313.8c-111.1,81.1-206.5,184.5-278.5,303.3s-120.6,252.3-142.1,390.6
				s-15.3,281.8,18.1,419.2c16.7,68.7,40.5,135.9,70.6,200.3c30,64.4,66.8,125.9,108.7,183.1L1122.8,1926.7z"/>
			<g>
				<g>
					
						<radialGradient id="SVGID_00000013150511563644701610000006445977986325599660_" cx="1804.4873" cy="790.7047" r="41.0475" gradientTransform="matrix(-13.49 7.4783 -8.0817 -14.5767 31470.9629 -1809.9192)" gradientUnits="userSpaceOnUse">
						<stop  offset="0" style="stop-color:#72CE0F"/>
						<stop  offset="0.2097" style="stop-color:#69C911"/>
						<stop  offset="0.5484" style="stop-color:#51BC17"/>
						<stop  offset="0.9718" style="stop-color:#2BA720"/>
						<stop  offset="1" style="stop-color:#28A521"/>
					</radialGradient>
					<path fill="url(#SVGID_00000013150511563644701610000006445977986325599660_)" d="M664.5,130.4c8.6-23.8,22.4-45.8,43.9-64.4
						c86.3-75.3,228.4-44.8,299.9,50.1c130.2,172.1,37.2,443.5-8.6,619.4L664.5,130.4z"/>
					
						<radialGradient id="SVGID_00000085239965222340786830000007069841926277567933_" cx="1820.4948" cy="790.09" r="28.4106" gradientTransform="matrix(-13.49 7.4783 -8.0817 -14.5767 31470.9629 -1809.9192)" gradientUnits="userSpaceOnUse">
						<stop  offset="0" style="stop-color:#72CE0F"/>
						<stop  offset="0.2097" style="stop-color:#69C911"/>
						<stop  offset="0.5484" style="stop-color:#51BC17"/>
						<stop  offset="0.9718" style="stop-color:#2BA720"/>
						<stop  offset="1" style="stop-color:#28A521"/>
					</radialGradient>
					<path fill="url(#SVGID_00000085239965222340786830000007069841926277567933_)" d="M664.5,130.4c-24.8-5.7-50.5-5.2-78.2,2.9
						C477.1,166.6,427.5,303,470,414.1C547.2,615.8,826.7,680.7,999.8,735L664.5,130.4z"/>
				</g>
				<g>
					
						<radialGradient id="SVGID_00000103245459751206528410000009750023999817446816_" cx="1441.2919" cy="340.636" r="41.0509" gradientTransform="matrix(7.4783 13.49 -14.5767 8.0817 -5389.7124 -21198.9355)" gradientUnits="userSpaceOnUse">
						<stop  offset="0" style="stop-color:#72CE0F"/>
						<stop  offset="0.2097" style="stop-color:#69C911"/>
						<stop  offset="0.5484" style="stop-color:#51BC17"/>
						<stop  offset="0.9718" style="stop-color:#2BA720"/>
						<stop  offset="1" style="stop-color:#28A521"/>
					</radialGradient>
					<path fill="url(#SVGID_00000103245459751206528410000009750023999817446816_)" d="M395.1,1070.8c-23.8-8.6-45.8-22.4-64.4-43.9
						c-74.9-85.8-44.8-228.4,50.1-299.9c172.1-130.2,444-37.2,619.4,8.6L395.1,1070.8z"/>
					
						<radialGradient id="SVGID_00000093151566086195283480000015147454873178666380_" cx="1457.2993" cy="340.019" r="28.4111" gradientTransform="matrix(7.4783 13.49 -14.5767 8.0817 -5389.7124 -21198.9355)" gradientUnits="userSpaceOnUse">
						<stop  offset="0" style="stop-color:#72CE0F"/>
						<stop  offset="0.2097" style="stop-color:#69C911"/>
						<stop  offset="0.5484" style="stop-color:#51BC17"/>
						<stop  offset="0.9718" style="stop-color:#2BA720"/>
						<stop  offset="1" style="stop-color:#28A521"/>
					</radialGradient>
					<path fill="url(#SVGID_00000093151566086195283480000015147454873178666380_)" d="M395.1,1070.8c-5.2,24.8-5.2,50.5,3.3,78.2
						c33.4,109.2,169.8,159.3,280.9,116.4c201.7-77.3,266.6-356.7,320.9-529.8L395.1,1070.8z"/>
				</g>
				<g>
					
						<radialGradient id="SVGID_00000124144374526576195950000009054775428093002419_" cx="1927.6454" cy="4.5033" r="41.0509" gradientTransform="matrix(13.49 -7.4783 8.0817 14.5767 -24778.6562 15661.6846)" gradientUnits="userSpaceOnUse">
						<stop  offset="0" style="stop-color:#72CE0F"/>
						<stop  offset="0.2097" style="stop-color:#69C911"/>
						<stop  offset="0.5484" style="stop-color:#51BC17"/>
						<stop  offset="0.9718" style="stop-color:#2BA720"/>
						<stop  offset="1" style="stop-color:#28A521"/>
					</radialGradient>
					<path fill="url(#SVGID_00000124144374526576195950000009054775428093002419_)" d="M1335,1340.2c-8.6,23.8-22.4,45.8-43.9,64.4
						c-86.3,74.9-228.4,44.8-299.9-50.1C861,1181.9,954,910.5,999.8,735L1335,1340.2z"/>
					
						<radialGradient id="SVGID_00000077312947867345479380000017415240937866776483_" cx="1943.6511" cy="3.8886" r="28.413" gradientTransform="matrix(13.49 -7.4783 8.0817 14.5767 -24778.6562 15661.6846)" gradientUnits="userSpaceOnUse">
						<stop  offset="0" style="stop-color:#72CE0F"/>
						<stop  offset="0.2097" style="stop-color:#69C911"/>
						<stop  offset="0.5484" style="stop-color:#51BC17"/>
						<stop  offset="0.9718" style="stop-color:#2BA720"/>
						<stop  offset="1" style="stop-color:#28A521"/>
					</radialGradient>
					<path fill="url(#SVGID_00000077312947867345479380000017415240937866776483_)" d="M1335,1340.2c24.8,5.7,51,5.2,78.2-2.9
						c109.2-33.4,159.3-169.8,116.4-280.9c-77.3-201.7-356.7-266.6-529.8-320.9L1335,1340.2z"/>
				</g>
				<g>
					
						<radialGradient id="SVGID_00000103962798615240352250000013839508851640447638_" cx="2290.8435" cy="454.5731" r="41.0504" gradientTransform="matrix(-7.4783 -13.49 14.5767 -8.0817 12081.9326 35050.6992)" gradientUnits="userSpaceOnUse">
						<stop  offset="0" style="stop-color:#72CE0F"/>
						<stop  offset="0.2097" style="stop-color:#69C911"/>
						<stop  offset="0.5484" style="stop-color:#51BC17"/>
						<stop  offset="0.9718" style="stop-color:#2BA720"/>
						<stop  offset="1" style="stop-color:#28A521"/>
					</radialGradient>
					<path fill="url(#SVGID_00000103962798615240352250000013839508851640447638_)" d="M1604.9,399.8c23.8,8.6,45.8,22.4,64.4,43.9
						c74.9,86.3,44.8,228.4-50.1,299.9c-172.1,130.2-444,37.2-619.4-8.6L1604.9,399.8z"/>
					
						<radialGradient id="SVGID_00000051357412353538029220000010189354329912631458_" cx="2306.8486" cy="453.959" r="28.4125" gradientTransform="matrix(-7.4783 -13.49 14.5767 -8.0817 12081.9326 35050.6992)" gradientUnits="userSpaceOnUse">
						<stop  offset="0" style="stop-color:#72CE0F"/>
						<stop  offset="0.2097" style="stop-color:#69C911"/>
						<stop  offset="0.5484" style="stop-color:#51BC17"/>
						<stop  offset="0.9718" style="stop-color:#2BA720"/>
						<stop  offset="1" style="stop-color:#28A521"/>
					</radialGradient>
					<path fill="url(#SVGID_00000051357412353538029220000010189354329912631458_)" d="M1604.9,399.8c5.7-24.8,5.2-50.5-2.9-78.2
						c-33.4-109.2-169.8-158.8-280.9-116.4c-201.7,77.3-266.6,356.7-320.9,529.8L1604.9,399.8z"/>
				</g>
			</g>
		</g>
	</g>
</g>
</svg>
